<svg width="318" height="513" xmlns="http://www.w3.org/2000/svg" xmlns:xlink="http://www.w3.org/1999/xlink" overflow="hidden"><defs><clipPath id="clip0"><path d="M-559-212-241-212-241 301-559 301Z" fill-rule="evenodd" clip-rule="evenodd"/></clipPath></defs><g clip-path="url(#clip0)" transform="translate(559 212)"><path d="M-393.102-198.964-362.748-105.232C-361.775-102.229-358.986-100.196-355.839-100.196L-257.277-100.196C-250.274-100.196-247.327-91.2317-252.956-87.0509L-332.884-27.6991C-335.391-25.837-336.433-22.5777-335.475-19.6008L-305.012 75.0075C-302.853 81.7115-310.49 87.2806-316.18 83.1529L-395.739 25.4276C-398.287 23.5797-401.73 23.5846-404.272 25.4426L-483.828 83.5706C-489.509 87.7223-497.169 82.1632-495.019 75.4493L-464.538-19.6909C-463.585-22.6679-464.629-25.9221-467.135-27.7812L-547.04-87.049C-552.674-91.2267-549.728-100.196-542.723-100.196L-444.181-100.196C-441.033-100.196-438.245-102.229-437.272-105.232L-406.917-198.964C-404.745-205.679-395.278-205.679-393.102-198.964Z" fill="#FBB03B" fill-rule="evenodd"/><path d="M-400.003 24.0463C-401.501 24.0483-402.999 24.5141-404.271 25.4426L-483.827 83.5705C-489.509 87.7222-497.169 82.1632-495.019 75.4492L-464.538-19.6911C-463.584-22.668-464.629-25.9223-467.134-27.7813L-547.04-87.0491C-552.674-91.2269-549.728-100.197-542.723-100.197L-444.18-100.197C-441.032-100.197-438.245-102.229-437.271-105.232L-406.916-198.965C-405.828-202.324-402.913-204.004-400-204" fill="#FCC062" fill-rule="evenodd"/><path d="M-488.187 93.0001C-491.267 93.0001-494.35 92.0269-497.042 90.0804-502.439 86.1765-504.611 79.5567-502.572 73.2148L-472.187-21.3067-551.842-80.1892C-557.181-84.1361-559.289-90.7609-557.211-97.0669-555.133-103.372-549.5-107.448-542.861-107.448L-444.637-107.448-414.38-200.561C-412.319-206.902-406.679-211-400.01-211-393.342-211-387.702-206.902-385.64-200.56L-355.383-107.448-257.14-107.448C-250.502-107.448-244.87-103.375-242.79-97.072-240.711-90.7689-242.815-84.1432-248.151-80.1952L-327.827-21.2318-297.461 72.7601C-295.415 79.0921-297.571 85.7128-302.954 89.6257-308.337 93.5387-315.301 93.5486-320.693 89.6478L-399.994 32.3041-479.293 90.0495C-481.993 92.0169-485.09 93.0001-488.187 93.0001ZM-541.133-91.7691-462.539-33.6699C-457.323-29.8139-455.151-23.0733-457.135-16.8982L-487.111 76.3513-408.889 19.3912C-403.59 15.5322-396.456 15.5193-391.142 19.3612L-312.915 75.9285-342.871-16.7963C-344.868-22.9764-342.702-29.724-337.483-33.5851L-258.865-91.7671-355.797-91.7671C-362.364-91.7671-368.139-95.9637-370.167-102.208L-400.01-194.05-429.854-102.21C-431.881-95.9657-437.656-91.771-444.223-91.771L-541.133-91.771-541.133-91.7691Z" fill-rule="evenodd"/><path d="M-409 52-394 52-394 114-409 114Z" fill="#153075" fill-rule="evenodd"/><path d="M-409 131-394 131-394 301-409 301Z" fill-rule="evenodd"/><path d="M-368 99-352 99-352 212-368 212Z" fill-rule="evenodd"/><path d="M-368 236-352 236-352 252-368 252Z" fill="#112861" fill-rule="evenodd"/><path d="M-328 179-312 179-312 284-328 284Z" fill-rule="evenodd"/><path d="M-328 139-312 139-312 164-328 164Z" fill="#153075" fill-rule="evenodd"/><path d="M-448 99-432 99-432 212-448 212Z" fill-rule="evenodd"/><path d="M-448 236-432 236-432 252-448 252Z" fill="#112861" fill-rule="evenodd"/><path d="M-489 179-473 179-473 284-489 284Z" fill-rule="evenodd"/><path d="M-489 139-473 139-473 164-489 164Z" fill="#153075" fill-rule="evenodd"/></g></svg>