<svg width="369" height="513" xmlns="http://www.w3.org/2000/svg" xmlns:xlink="http://www.w3.org/1999/xlink" overflow="hidden"><defs><clipPath id="clip0"><path d="M161 88 530 88 530 601 161 601Z" fill-rule="evenodd" clip-rule="evenodd"/></clipPath></defs><g clip-path="url(#clip0)" transform="translate(-161 -88)"><path d="M265 96 522 96 522 497 265 497Z" fill="#FFFFFF" fill-rule="evenodd"/><path d="M265 96 386 96 386 505 265 505Z" fill="#E6E6E6" fill-rule="evenodd"/><path d="M224 136 482 136 482 545 224 545Z" fill="#FCC062" fill-rule="evenodd"/><path d="M224 136 362 136 362 545 224 545Z" fill="#FBB03B" fill-rule="evenodd"/><path d="M442 248.175 442 593 170 593 170 176 370 176Z" fill="#153075" fill-rule="evenodd"/><path d="M170 176 290 176 290 593 170 593Z" fill="#112861" fill-rule="evenodd"/><path d="M370 176 370 248 442 247.86" fill="#FFFFFF" fill-rule="evenodd"/><path d="M490 553 459.588 553 459.588 537.26 474.27 537.26 474.27 143.741 225.731 143.741 225.731 159.481 210 159.481 210 128 490 128Z" fill-rule="evenodd"/><path d="M529 505 498.656 505 498.656 489.283 513.306 489.283 513.306 104.718 273.695 104.718 273.695 119.388 258 119.388 258 89 529 89Z" fill-rule="evenodd"/><path d="M373.323 168 162 168 162 601 450 601 450 244.83 373.323 168ZM377.339 194.28 423.083 240.114 377.339 240.203 377.339 194.28ZM177.705 585.263 177.705 183.737 361.633 183.737 361.633 255.971 434.294 255.83 434.294 585.264 177.705 585.264Z" fill-rule="evenodd"/><path d="M218 233 338 233 338 249 218 249Z" fill="#FFFFFF" fill-rule="evenodd"/><path d="M218 281 394 281 394 297 218 297Z" fill="#FFFFFF" fill-rule="evenodd"/><path d="M218 330 394 330 394 345 218 345Z" fill="#FFFFFF" fill-rule="evenodd"/><path d="M218 378 394 378 394 394 218 394Z" fill="#FFFFFF" fill-rule="evenodd"/><path d="M218 425 394 425 394 441 218 441Z" fill="#FFFFFF" fill-rule="evenodd"/><path d="M218 472 394 472 394 488 218 488Z" fill="#FFFFFF" fill-rule="evenodd"/><path d="M218 520 394 520 394 536 218 536Z" fill="#FFFFFF" fill-rule="evenodd"/></g></svg>