<svg width="514" height="513" xmlns="http://www.w3.org/2000/svg" xmlns:xlink="http://www.w3.org/1999/xlink" overflow="hidden"><defs><clipPath id="clip0"><path d="M-690 8-176 8-176 521-690 521Z" fill-rule="evenodd" clip-rule="evenodd"/></clipPath></defs><g clip-path="url(#clip0)" transform="translate(690 -8)"><path d="M-185 264C-185 400.967-296.033 512-433 512-569.967 512-681 400.967-681 264-681 127.033-569.967 16-433 16-296.033 16-185 127.033-185 264Z" fill="#FFFFFF" fill-rule="evenodd"/><path d="M-433 512C-569.966 512-681 400.967-681 263.999-681 127.031-569.966 16-433 16" fill="#E6E6E6" fill-rule="evenodd"/><path d="M-209 264C-209 387.712-309.288 488-433 488-556.712 488-657 387.712-657 264-657 140.288-556.712 40-433 40-309.288 40-209 140.288-209 264Z" fill="#153075" fill-rule="evenodd"/><path d="M-465 208-401 208-401 432-465 432Z" fill="#FCC062" fill-rule="evenodd"/><path d="M-401 128C-401 145.673-415.327 160-433 160-450.673 160-465 145.673-465 128-465 110.327-450.673 96-433 96-415.327 96-401 110.327-401 128Z" fill="#FCC062" fill-rule="evenodd"/><path d="M-441 128C-441 114.577-432.717 103.124-421 98.3727-424.711 96.8676-428.75 96-433 96-450.672 96-465 110.326-465 128-465 145.673-450.674 160-433 160-428.75 160-424.71 159.132-421 157.627-432.717 152.876-441 141.422-441 128Z" fill="#FBB03B" fill-rule="evenodd"/><path d="M-585 264.001C-585 152.549-503.589 60.1454-397 42.9185-408.725 41.0235-420.74 40-433 40-556.712 40-657 140.288-657 264-657 387.711-556.712 488-433 488-420.74 488-408.725 486.978-397 485.082-503.59 467.858-585 375.454-585 264.001Z" fill="#112861" fill-rule="evenodd"/><path d="M-432.999 520C-501.378 520-565.666 493.371-614.018 445.02-662.371 396.668-689 332.38-689 264.001-689 195.622-662.371 131.332-614.019 82.981-565.668 34.629-501.38 8-432.999 8-364.618 8-300.332 34.629-251.979 82.981-203.629 131.332-177 195.62-177 264.001-177 332.382-203.629 396.668-251.98 445.021-300.331 493.374-364.62 520-432.999 520ZM-432.999 23.738C-497.175 23.738-557.511 48.73-602.89 94.109-648.269 139.488-673.262 199.824-673.262 264.001-673.262 328.178-648.27 388.511-602.891 433.891-557.512 479.27-497.177 504.262-433 504.262-368.823 504.262-308.488 479.27-263.109 433.891-217.73 388.512-192.738 328.177-192.738 264-192.738 199.823-217.731 139.489-263.11 94.11-308.489 48.73-368.823 23.738-432.999 23.738Z" fill-rule="evenodd"/><path d="M-233 264-248.825 264C-248.825 228.429-259.026 194.108-278.325 164.465-281.16 160.11-284.218 155.809-287.415 151.708-290.141 148.211-293.03 144.76-296 141.471L-284.208 131C-280.986 134.571-277.852 138.303-274.894 142.097-271.425 146.546-268.106 151.229-265.03 155.955-244.076 188.14-233 225.291-233 264Z" fill="#FFFFFF" fill-rule="evenodd"/><path d="M-310.516 127C-322.185 116.696-335.134 107.891-349 100.826L-341.764 87C-326.713 94.6692-312.661 104.226-300 115.406L-310.516 127Z" fill="#FFFFFF" fill-rule="evenodd"/><path d="M-432.896 496C-494.894 496-553.18 471.864-597.018 428.042-640.856 384.22-665 325.952-665 263.978-665 222.523-653.929 181.838-632.986 146.319-612.658 111.846-583.601 83.0341-548.956 63L-541.071 76.6251C-573.374 95.3051-600.468 122.169-619.421 154.312-638.938 187.412-649.254 225.332-649.254 263.978-649.254 383.235-552.196 480.26-432.897 480.26-406.266 480.26-380.268 475.482-355.625 466.06L-350 480.762C-376.446 490.873-404.336 496-432.896 496Z" fill-rule="evenodd"/><path d="M-465 208-441 208-441 433-465 433Z" fill="#FBB03B" fill-rule="evenodd"/><path d="M-333.454 474-340.202 459.773C-303.796 442.45-272.978 415.32-251.081 381.315-228.605 346.412-216.725 305.905-216.725 264.173-216.724 144.837-313.657 47.7506-432.804 47.7506-460.575 47.7506-487.607 52.9498-513.15 63.2029L-519 48.5833C-491.589 37.5795-462.589 32-432.805 32-370.887 32-312.676 56.1513-268.894 100.001-225.112 143.852-201 202.156-201 264.173-201 308.938-213.748 352.399-237.866 389.852-261.349 426.323-294.403 455.419-333.454 474Z" fill-rule="evenodd"/><path d="M-393 440-473 440-473 200-393 200-393 440ZM-457.217 424.253-408.783 424.253-408.783 215.748-457.217 215.748-457.217 424.253Z" fill-rule="evenodd"/><path d="M-432.999 168C-455.056 168-473 150.056-473 128-473 105.944-455.056 88-432.999 88-410.944 88-393 105.944-393 128-393 150.056-410.944 168-432.999 168ZM-432.999 103.782C-446.353 103.782-457.217 114.646-457.217 127.999-457.217 141.352-446.353 152.216-432.999 152.216-419.647 152.216-408.783 141.352-408.783 127.999-408.783 114.646-419.647 103.782-432.999 103.782Z" fill-rule="evenodd"/></g></svg>