<svg width="424" height="514" xmlns="http://www.w3.org/2000/svg" xmlns:xlink="http://www.w3.org/1999/xlink" overflow="hidden"><defs><clipPath id="clip0"><path d="M856 54 1280 54 1280 568 856 568Z" fill-rule="evenodd" clip-rule="evenodd"/></clipPath></defs><g clip-path="url(#clip0)" transform="translate(-856 -54)"><path d="M1019 535 1117 535 1117 559 1019 559Z" fill="#153075" fill-rule="evenodd"/><path d="M995 486 1141 486 1141 535 995 535Z" fill="#FFFFFF" fill-rule="evenodd"/><path d="M995 486 1035 486 1035 535 995 535Z" fill="#E6E6E6" fill-rule="evenodd"/><path d="M1214 266.143C1214 179.937 1139.18 111.165 1050.79 120.925 981.802 128.542 926.85 185.426 921.458 254.452 918.224 295.854 932.336 333.902 957.28 362.263 981.14 389.394 994.25 424.266 994.25 460.356L994.25 461 1140.75 461 1140.75 460.41C1140.75 423.536 1155.23 388.659 1179.18 360.575 1200.89 335.126 1214 302.183 1214 266.143Z" fill="#FCC062" fill-rule="evenodd"/><path d="M998.228 362.194C973.226 333.833 959.041 295.784 962.284 254.384 967.585 186.677 1020.71 130.77 1088 121.468 1076.08 119.838 1063.75 119.465 1051.1 120.858 981.952 128.475 926.862 185.359 921.458 254.384 918.216 295.784 932.399 333.833 957.402 362.194 981.318 389.324 994.497 424.196 994.497 460.285L994.497 461 1035.36 461 1035.36 460.285C1035.36 424.196 1022.15 389.324 998.228 362.194Z" fill="#FBB03B" fill-rule="evenodd"/><path d="M1011 437 1125 437 1125 461 1011 461Z" fill="#153075" fill-rule="evenodd"/><path d="M1010 437 1035 437 1035 461 1010 461Z" fill="#112861" fill-rule="evenodd"/><path d="M1148.68 469 986.327 469 986.327 460.528C986.327 426.245 973.876 393.209 951.267 367.504 923.629 336.081 910.211 295.706 913.484 253.818 916.237 218.575 931.521 184.941 956.521 159.111 981.547 133.255 1014.71 116.874 1049.91 112.99 1094.53 108.06 1137.37 121.661 1170.53 151.282 1203.24 180.499 1222 222.359 1222 266.128 1222 302.588 1208.96 337.959 1185.28 365.723 1161.67 393.396 1148.67 427.084 1148.67 460.582L1148.67 469 1148.68 469ZM1001.86 453.343 1133.16 453.343C1134.89 418.561 1148.99 384.101 1173.33 355.576 1194.59 330.639 1206.31 298.874 1206.31 266.127 1206.31 226.804 1189.45 189.196 1160.06 162.945 1130.27 136.335 1091.76 124.127 1051.64 128.55 1020.07 132.035 990.304 146.751 967.815 169.983 945.342 193.203 931.604 223.408 929.134 255.032 926.193 292.676 938.245 328.952 963.068 357.176 986.603 383.939 1000.23 417.849 1001.86 453.343Z" fill-rule="evenodd"/><path d="M978 478 1158 478 1158 494 978 494Z" fill-rule="evenodd"/><path d="M995 503 1141 503 1141 519 995 519Z" fill-rule="evenodd"/><path d="M995 527 1141 527 1141 543 995 543Z" fill-rule="evenodd"/><path d="M1019 551 1117 551 1117 567 1019 567Z" fill-rule="evenodd"/><path d="M1035.53 437.689 1019.26 274.996 1034.86 273.437 1051.12 436.129Z" fill="#FFFFFF" fill-rule="evenodd"/><path d="M1099.92 437.702 1084.33 436.142 1100.6 273.45 1116.19 275.009Z" fill="#FFFFFF" fill-rule="evenodd"/><path d="M1010 430 1125 430 1125 446 1010 446Z" fill-rule="evenodd"/><path d="M1067.5 308 1028.11 284.003 1008.07 304.354 997 293.121 1025.68 264 1067.5 289.475 1109.32 264 1138 293.121 1126.93 304.354 1106.89 284.003Z" fill="#153075" fill-rule="evenodd"/><path d="M1181 258 1165.41 258C1165.41 204.381 1121.71 159.77 1068 159.77L1068 144C1130.31 144 1181 194.919 1181 258Z" fill="#FFFFFF" fill-rule="evenodd"/><path d="M1165 274 1181 274 1181 290 1165 290Z" fill="#FFFFFF" fill-rule="evenodd"/><path d="M1059 55 1075 55 1075 87.0001 1059 87.0001Z" fill="#153075" fill-rule="evenodd"/><path d="M935.629 145.055 912.622 122.047 923.704 110.965 946.712 133.972Z" fill="#153075" fill-rule="evenodd"/><path d="M857 259 889 259 889 274 857 274Z" fill="#153075" fill-rule="evenodd"/><path d="M923.705 421.18 912.622 410.097 935.63 387.09 946.712 398.172Z" fill="#153075" fill-rule="evenodd"/><path d="M1211.75 421.18 1188.75 398.172 1199.83 387.09 1222.84 410.097Z" fill="#153075" fill-rule="evenodd"/><path d="M1246 259 1279 259 1279 274 1246 274Z" fill="#153075" fill-rule="evenodd"/><path d="M1199.83 145.055 1188.75 133.972 1211.75 110.965 1222.84 122.047Z" fill="#153075" fill-rule="evenodd"/></g></svg>