<svg width="513" height="482" xmlns="http://www.w3.org/2000/svg" xmlns:xlink="http://www.w3.org/1999/xlink" overflow="hidden"><defs><clipPath id="clip0"><path d="M38 55 551 55 551 537 38 537Z" fill-rule="evenodd" clip-rule="evenodd"/></clipPath></defs><g clip-path="url(#clip0)" transform="translate(-38 -55)"><path d="M375 314.798 375 528 46 528 46 200 375 200" fill="#153075" fill-rule="evenodd"/><path d="M169 314.798 169 528 46 528 46 200 169 200" fill="#112861" fill-rule="evenodd"/><path d="M220.282 334.375 139.154 253 87 305.313 220.282 439 539 119.312 486.846 67Z" fill="#FCC062" fill-rule="evenodd"/><path d="M186 298.478 139.168 253 87 305.147 186 405" fill="#FBB03B" fill-rule="evenodd"/><path d="M220.307 450 76 305.288 139.2 241.91 220.306 323.245 486.8 56 550 119.378 220.307 450ZM98.1198 305.288 220.306 427.818 527.881 119.379 486.8 78.182 220.307 345.427 139.201 264.093 98.1198 305.288Z" fill-rule="evenodd"/><path d="M422.984 200.3 411.904 189.22 481.543 119.581 492.622 130.661Z" fill="#FFFFFF" fill-rule="evenodd"/><path d="M399.77 223.513 388.691 212.433 400.298 200.826 411.377 211.906Z" fill="#FFFFFF" fill-rule="evenodd"/><path d="M382 536 38 536 38 192 324.917 192 324.917 207.67 53.6703 207.67 53.6703 520.329 366.33 520.329 366.33 314.748 382 314.748Z" fill-rule="evenodd"/><path d="M349 504 243 504 243 488.361 333.258 488.361 333.258 455 349 455Z" fill="#FFFFFF" fill-rule="evenodd"/><path d="M194 488 227 488 227 504 194 504Z" fill="#FFFFFF" fill-rule="evenodd"/></g></svg>