<svg width="514" height="500" xmlns="http://www.w3.org/2000/svg" xmlns:xlink="http://www.w3.org/1999/xlink" overflow="hidden"><defs><clipPath id="clip0"><path d="M477 46 991 46 991 546 477 546Z" fill-rule="evenodd" clip-rule="evenodd"/></clipPath></defs><g clip-path="url(#clip0)" transform="translate(-477 -46)"><path d="M885.999 257 982 257 982 538 486 538 486 257 670 257" fill="#153075" fill-rule="evenodd"/><path d="M486 257 638 257 638 538 486 538Z" fill="#112861" fill-rule="evenodd"/><path d="M964.639 150.301C986.454 128.271 986.454 92.5521 964.639 70.5228 942.825 48.4925 907.457 48.4925 885.643 70.5228L880 76.2219 958.996 156 964.639 150.301Z" fill="#FCC062" fill-rule="evenodd"/><path d="M941.884 172.692 862.623 93.431 879.603 76.4507 958.864 155.712Z" fill="#E6E6E6" fill-rule="evenodd"/><path d="M890.936 121.734 862.63 93.4279 879.61 76.4476 907.916 104.754Z" fill="#FFFFFF" fill-rule="evenodd"/><path d="M976 87.6231C973.298 81.4617 969.517 75.6707 964.546 70.6157 942.757 48.462 907.427 48.461 885.637 70.6157L880 76.3468 908.182 105 913.819 99.2688C930.636 82.1692 955.501 78.3268 976 87.6231Z" fill="#FBB03B" fill-rule="evenodd"/><path d="M641.909 393.818 636.227 365.637 596.454 360 551 484 676 438.908 670.319 399.455Z" fill="#FFFFFF" fill-rule="evenodd"/><path d="M608 461.201 602.265 432.665 573.8 427 551 484Z" fill="#FCC062" fill-rule="evenodd"/><path d="M602 432.665 573.682 427 551 484" fill="#FBB03B" fill-rule="evenodd"/><path d="M676.181 439 670.525 399.296 642.246 393.623 636.59 365.263 597 359.591 862.819 93 942 172.41Z" fill="#FCC062" fill-rule="evenodd"/><path d="M669.961 399 641.66 393.339 636 365.041 885.039 116 919 149.96Z" fill="#FBB03B" fill-rule="evenodd"/><path d="M959.165 167 869 76.8352 880.161 65.6739C892.203 53.6318 908.214 47 925.243 47 942.272 47 958.284 53.6318 970.326 65.6739 982.368 77.716 989 93.7266 989 110.756 989 127.785 982.367 143.796 970.326 155.838L959.165 167ZM891.031 76.8352 959.166 144.968 959.312 144.822C968.413 135.722 973.425 123.624 973.425 110.755 973.425 97.8857 968.413 85.7877 959.312 76.6875 950.212 67.5882 938.114 62.5762 925.245 62.5762 912.376 62.5762 900.278 67.5871 891.178 76.6875L891.031 76.8352Z" fill-rule="evenodd"/><path d="M942.033 183.864 851.455 93.2852 862.485 82.2544 953.064 172.833Z" fill-rule="evenodd"/><path d="M924.964 178.285 681.155 422.097 678.25 401.765 743.451 336.564 732.416 325.53 667.41 390.536 648.291 386.712 644.466 367.59 817.072 194.983 806.037 183.948 633.235 356.75 612.904 353.845 856.714 110.035 845.678 99 590.835 353.846 589.611 355.07 538 497 679.932 445.388 936 189.319 924.964 178.285ZM601.52 367.984 629.427 371.97 635.029 399.973 663.032 405.573 667.018 433.48 613.926 452.786 608.604 426.312 582.219 421.061 601.52 367.984ZM576.824 435.899 595.357 439.588 599.094 458.18 564.094 470.907 576.824 435.899Z" fill-rule="evenodd"/><path d="M754.89 325.401 743.859 314.37 789.152 269.076 800.183 280.107Z" fill-rule="evenodd"/><path d="M582 484 719 484 719 499 582 499Z" fill="#FFFFFF" fill-rule="evenodd"/><path d="M735 484 790 484 790 499 735 499Z" fill="#FFFFFF" fill-rule="evenodd"/><path d="M808 484 838 484 838 499 808 499Z" fill="#FFFFFF" fill-rule="evenodd"/><path d="M847 484 863 484 863 499 847 499Z" fill="#FFFFFF" fill-rule="evenodd"/><path d="M990 545 478 545 478 250 669.948 250 669.948 265.556 493.6 265.556 493.6 529.444 974.4 529.444 974.4 265.556 886.122 265.556 886.122 250 990 250Z" fill-rule="evenodd"/></g></svg>