<svg width="513" height="369" xmlns="http://www.w3.org/2000/svg" xmlns:xlink="http://www.w3.org/1999/xlink" overflow="hidden"><defs><clipPath id="clip0"><path d="M492-159 1005-159 1005 210 492 210Z" fill-rule="evenodd" clip-rule="evenodd"/></clipPath></defs><g clip-path="url(#clip0)" transform="translate(-492 159)"><path d="M533 137 533-128.681C533-141.007 542.993-151 555.319-151L942.681-151C955.007-151 965-141.007 965-128.681L965 137" fill="#153075" fill-rule="evenodd"/><path d="M533 137 533-124.686C533-139.218 544.782-151 559.314-151L597-151 597 136.998" fill="#112861" fill-rule="evenodd"/><path d="M565-119 933-119 933 105 565 105Z" fill="#FCC062" fill-rule="evenodd"/><path d="M565-119 597-119 597 105 565 105Z" fill="#FBB03B" fill-rule="evenodd"/><path d="M613 105 613 105C613 87.3268 627.327 73 644.999 73L853.001 73C870.673 73 885 87.3279 885 105L885 105" fill="#FFFFFF" fill-rule="evenodd"/><path d="M693 73 645 73C627.326 73 613 87.4513 613 105L661 105C660.999 87.4522 675.326 73 693 73Z" fill="#F2F2F2" fill-rule="evenodd"/><path d="M797 137 997 137 997 137C997 172.347 968.346 201 933.001 201L564.999 201C529.653 201 501 172.346 501 137L501 137 700.999 137" fill="#153075" fill-rule="evenodd"/><path d="M613 138 501 138C501 172.622 529.654 202 565 202L677 202C641.654 202 613 172.622 613 138Z" fill="#112861" fill-rule="evenodd"/><path d="M773.001 161 725.001 161C711.745 161 701 150.255 701 137L701 137 797 137 797 137C797.001 150.256 786.256 161 773.001 161Z" fill="#112861" fill-rule="evenodd"/><path d="M933.097 209 564.904 209C525.256 209 493 177.057 493 137.794L493 130 700.975 130 700.975 145.588 509.291 145.588C513.13 172.579 536.606 193.413 564.905 193.413L933.097 193.413C961.394 193.413 984.872 172.58 988.711 145.588L797.025 145.588 797.025 130 1005 130 1005 137.794C1005 177.057 972.744 209 933.097 209Z" fill-rule="evenodd"/><path d="M717 129 781 129 781 145 717 145Z" fill="#FFFFFF" fill-rule="evenodd"/><path d="M565 161 581 161 581 177 565 177Z" fill="#FFFFFF" fill-rule="evenodd"/><path d="M589 161 604 161 604 177 589 177Z" fill="#FBB03B" fill-rule="evenodd"/><path d="M613 161 629 161 629 177 613 177Z" fill="#FFFFFF" fill-rule="evenodd"/><path d="M869 161 885 161 885 177 869 177Z" fill="#FBB03B" fill-rule="evenodd"/><path d="M893 161 909 161 909 177 893 177Z" fill="#FFFFFF" fill-rule="evenodd"/><path d="M916 161 933 161 933 177 916 177Z" fill="#FBB03B" fill-rule="evenodd"/><path d="M973 121 957.258 121 957.258-127.058C957.258-135.992 949.988-143.26 941.055-143.26L556.945-143.26C548.011-143.26 540.742-135.991 540.742-127.058L540.742 121 525 121 525-127.058C525-144.672 539.33-159 556.945-159L941.055-159C958.67-159 973-144.672 973-127.058L973 121Z" fill-rule="evenodd"/><path d="M740-127 758-127 758-111 740-111Z" fill="#FFFFFF" fill-rule="evenodd"/><path d="M773.159-127 773.159-111.214 924.26-111.214 924.26 98.2147 891.68 98.2147C888.187 79.7084 871.953 65.666 852.5 65.666L644.403 65.666C624.951 65.666 608.716 79.7084 605.222 98.2147L572.739 98.2147 572.739-111.214 723.84-111.214 723.84-127 557-127 557 114 940 114 940-127C940-127 773.159-127 773.159-127ZM644.403 81.4514 852.5 81.4514C863.22 81.4514 872.328 88.4987 875.47 98.2136L621.434 98.2136C624.575 88.4987 633.683 81.4514 644.403 81.4514Z" fill-rule="evenodd"/><path d="M626.168-17.1274 615.038-28.2571 635.048-48.2666 646.177-37.1369Z" fill="#FFFFFF" fill-rule="evenodd"/><path d="M626.166 46.9114 615.036 35.7816 715.088-64.2701 726.218-53.1404Z" fill="#FFFFFF" fill-rule="evenodd"/><path d="M746.232-25.1346 735.102-36.2643 759.114-60.2767 770.244-49.1469Z" fill="#FFFFFF" fill-rule="evenodd"/><path d="M762.23 38.9002 751.1 27.7704 787.117-8.24713 798.247 2.88262Z" fill="#FFFFFF" fill-rule="evenodd"/><path d="M818.249 22.9015 807.119 11.7718 871.154-52.2632 882.284-41.1334Z" fill="#FFFFFF" fill-rule="evenodd"/></g></svg>